<svg width="20" height="20" viewBox="0 0 20 20" xmlns="http://www.w3.org/2000/svg">
<path opacity="0.4" d="M5.60573 16.4141C6.28906 15.6807 7.33073 15.7391 7.93073 16.5391L8.7724 17.6641C9.4474 18.5557 10.5391 18.5557 11.2141 17.6641L12.0557 16.5391C12.6557 15.7391 13.6974 15.6807 14.3807 16.4141C15.8641 17.9974 17.0724 17.4724 17.0724 15.2557V5.86406C17.0807 2.50573 16.2974 1.66406 13.1474 1.66406H6.8474C3.6974 1.66406 2.91406 2.50573 2.91406 5.86406V15.2474C2.91406 17.4724 4.13073 17.9891 5.60573 16.4141Z"  />
<path d="M13.5286 9.78906H8.94531C8.60365 9.78906 8.32031 9.50573 8.32031 9.16406C8.32031 8.8224 8.60365 8.53906 8.94531 8.53906H13.5286C13.8703 8.53906 14.1536 8.8224 14.1536 9.16406C14.1536 9.50573 13.8703 9.78906 13.5286 9.78906Z"  />
<path d="M13.5286 6.46094H8.94531C8.60365 6.46094 8.32031 6.1776 8.32031 5.83594C8.32031 5.49427 8.60365 5.21094 8.94531 5.21094H13.5286C13.8703 5.21094 14.1536 5.49427 14.1536 5.83594C14.1536 6.1776 13.8703 6.46094 13.5286 6.46094Z"  />
<path d="M6.48177 6.66667C6.02344 6.66667 5.64844 6.29167 5.64844 5.83333C5.64844 5.375 6.02344 5 6.48177 5C6.9401 5 7.3151 5.375 7.3151 5.83333C7.3151 6.29167 6.9401 6.66667 6.48177 6.66667Z"  />
<path d="M6.48177 10.0026C6.02344 10.0026 5.64844 9.6276 5.64844 9.16927C5.64844 8.71094 6.02344 8.33594 6.48177 8.33594C6.9401 8.33594 7.3151 8.71094 7.3151 9.16927C7.3151 9.6276 6.9401 10.0026 6.48177 10.0026Z"  />
</svg>
