<svg width="20" height="20" viewBox="0 0 20 20" fill="none" xmlns="http://www.w3.org/2000/svg">
<path d="M7.47396 18.3307H12.474C16.6406 18.3307 18.3073 16.6641 18.3073 12.4974V7.4974C18.3073 3.33073 16.6406 1.66406 12.474 1.66406H7.47396C3.30729 1.66406 1.64062 3.33073 1.64062 7.4974V12.4974C1.64063 16.6641 3.30729 18.3307 7.47396 18.3307Z" stroke="#8B8C99" stroke-width="1.25" stroke-linecap="round" stroke-linejoin="round"/>
<path d="M1.64062 10.5821L6.64062 10.5655C7.26562 10.5655 7.96562 11.0405 8.19896 11.6238L9.14896 14.0238C9.36562 14.5655 9.70729 14.5655 9.92396 14.0238L11.8323 9.18212C12.0156 8.71546 12.3573 8.69879 12.5906 9.14046L13.4573 10.7821C13.7156 11.2738 14.3823 11.6738 14.9323 11.6738H18.3156" stroke="#8B8C99" stroke-width="1.25" stroke-linecap="round" stroke-linejoin="round"/>
</svg>
