<svg width="20" height="20" viewBox="0 0 20 20" xmlns="http://www.w3.org/2000/svg">
<path opacity="0.4" d="M14.6089 6.4724C14.5505 6.46407 14.4922 6.46407 14.4339 6.4724C13.1422 6.43073 12.1172 5.3724 12.1172 4.0724C12.1172 2.7474 13.1922 1.66406 14.5255 1.66406C15.8505 1.66406 16.9339 2.73906 16.9339 4.0724C16.9255 5.3724 15.9005 6.43073 14.6089 6.4724Z" />
<path opacity="0.4" d="M17.3276 12.2464C16.3943 12.8714 15.0859 13.1048 13.8776 12.9464C14.1943 12.2631 14.3609 11.5048 14.3693 10.7048C14.3693 9.87143 14.1859 9.07976 13.8359 8.3881C15.0693 8.22143 16.3776 8.45475 17.3193 9.07975C18.6359 9.94642 18.6359 11.3714 17.3276 12.2464Z" />
<path opacity="0.4" d="M5.36406 6.4724C5.42239 6.46407 5.48073 6.46407 5.53906 6.4724C6.83073 6.43073 7.85573 5.3724 7.85573 4.0724C7.85573 2.7474 6.78073 1.66406 5.4474 1.66406C4.1224 1.66406 3.03906 2.73906 3.03906 4.0724C3.0474 5.3724 4.07239 6.43073 5.36406 6.4724Z" />
<path opacity="0.4" d="M5.4599 10.7049C5.4599 11.5133 5.6349 12.2799 5.95156 12.9716C4.77656 13.0966 3.55156 12.8466 2.65156 12.2549C1.3349 11.3799 1.3349 9.95491 2.65156 9.07991C3.54323 8.47991 4.80156 8.23825 5.9849 8.37159C5.64323 9.07159 5.4599 9.86326 5.4599 10.7049Z" />
<path d="M10.1 13.225C10.0333 13.2167 9.95833 13.2167 9.88333 13.225C8.35 13.175 7.125 11.9167 7.125 10.3667C7.125 8.78334 8.4 7.5 9.99167 7.5C11.575 7.5 12.8583 8.78334 12.8583 10.3667C12.8583 11.9167 11.6417 13.175 10.1 13.225Z" />
<path d="M7.38906 14.9531C6.13073 15.7948 6.13073 17.1781 7.38906 18.0115C8.8224 18.9698 11.1724 18.9698 12.6057 18.0115C13.8641 17.1698 13.8641 15.7865 12.6057 14.9531C11.1807 13.9948 8.83073 13.9948 7.38906 14.9531Z" />
</svg>
